<svg width="17" height="14" viewBox="0 0 17 14" fill="none" xmlns="http://www.w3.org/2000/svg">
<rect width="17" height="14" fill="black" fill-opacity="0.13"/>
<g id="Desktop - 1" clip-path="url(#clip0_0_1)">
<rect width="1441" height="3358" transform="translate(-474 -290)" fill="white"/>
<rect id="Rectangle 16" x="-474" y="-49" width="1441" height="119" fill="#111111"/>
<g id="Rectangle 17">
<path d="M-156 -6.9C-156 -11.6533 -156 -14.03 -155.208 -15.8993C-154.196 -18.2914 -152.291 -20.1955 -149.899 -21.2085C-148.03 -22 -145.653 -22 -140.9 -22H20.9C25.6533 -22 28.03 -22 29.8993 -21.2085C32.2914 -20.1955 34.1955 -18.2914 35.2085 -15.8993C36 -14.03 36 -11.6533 36 -6.9V22.9C36 27.6533 36 30.03 35.2085 31.8993C34.1955 34.2914 32.2914 36.1955 29.8993 37.2085C28.03 38 25.6533 38 20.9 38H-140.9C-145.653 38 -148.03 38 -149.899 37.2085C-152.291 36.1955 -154.196 34.2914 -155.208 31.8993C-156 30.03 -156 27.6533 -156 22.9V-6.9Z" fill="white"/>
<path d="M-156 -6.9C-156 -11.6533 -156 -14.03 -155.208 -15.8993C-154.196 -18.2914 -152.291 -20.1955 -149.899 -21.2085C-148.03 -22 -145.653 -22 -140.9 -22H20.9C25.6533 -22 28.03 -22 29.8993 -21.2085C32.2914 -20.1955 34.1955 -18.2914 35.2085 -15.8993C36 -14.03 36 -11.6533 36 -6.9V22.9C36 27.6533 36 30.03 35.2085 31.8993C34.1955 34.2914 32.2914 36.1955 29.8993 37.2085C28.03 38 25.6533 38 20.9 38H-140.9C-145.653 38 -148.03 38 -149.899 37.2085C-152.291 36.1955 -154.196 34.2914 -155.208 31.8993C-156 30.03 -156 27.6533 -156 22.9V-6.9Z" stroke="black"/>
</g>
<path id="Vector" d="M16.6494 2.19251L9.65736 12.6559C8.99409 13.6131 7.97154 13.6131 7.3359 12.6559L0.343857 2.19251C-0.319419 1.20229 0.0122191 0.443115 1.03477 0.443115H15.9585C17.0087 0.443115 17.3127 1.20229 16.6494 2.19251Z" fill="#DFAA5B"/>
</g>
<defs>
<clipPath id="clip0_0_1">
<rect width="1441" height="3358" fill="white" transform="translate(-474 -290)"/>
</clipPath>
</defs>
</svg>
